<svg xmlns="http://www.w3.org/2000/svg" version="1.0" width="256" height="256" viewBox="-5 -3 192 192">
  <path id="path1367" style="fill: #0005;" d="M 164.07127,82.212594 C 170.78505,130.12831 140.37851,174.02521 96.156376,180.25907 C 51.934221,186.49294 10.642501,152.70312 3.9287292,104.78742 C -2.7850408,56.871696 27.621491,12.974796 71.843631,6.740932 C 116.06577,0.50706203 157.3575,34.296886 164.07127,82.212594 z "/>
  <defs>
    <linearGradient id="gradient" x1="0%" y1="0%" x2="100%" y2="0%">
      <stop offset="0%" stop-color="#05a"/>
      <stop offset="100%" stop-color="#0a5"/>
    </linearGradient>
  </defs><path xmlns="http://www.w3.org/2000/svg" d="M 176.07132,80.212628 C 182.78511,128.12833 152.37858,172.02521 108.15643,178.25906 C 63.934276,184.49292 22.642531,150.7031 15.928736,102.7874 C 9.2149416,54.871706 39.621474,10.97482 83.843627,4.7409676 C 128.06578,-1.4928848 169.35753,32.296929 176.07132,80.212628 z " style="fill: #C0C0C0;fill-opacity:1;fill-rule:nonzero;color:#000000;stroke:none;marker:none;visibility:visible;display:inline;overflow:visible;enable-background:accumulate" id="path1306"/>
  <path d="M 160.05717,82.470148 C 165.42821,120.8027 141.10299,155.9202 105.72528,160.90729 C 70.347559,165.89438 37.31418,138.86254 31.943147,100.52999 C 26.572114,62.197436 50.897328,27.079933 86.275044,22.092845 C 121.65276,17.105759 154.68614,44.137598 160.05717,82.470148 L 160.05717,82.470148 z " style="fill: #f0f0f0;fill-opacity: 1;fill-rule:evenodd" id="path1308"/>
  <g transform="matrix(0.99267445,-0.12081983,0.12081983,0.99267445,0,0)" style="font-size:150px;font-style:normal;font-variant:normal;font-weight:normal;font-stretch:normal;text-align:center;line-height:100%;letter-spacing:0px;word-spacing:0px;writing-mode:lr-tb;text-anchor:middle;fill: #C0C0C0;fill-opacity:1;stroke:none;font-family:Standard Symbols L;-inkscape-font-specification:Standard Symbols L" id="text2985">
    <path d="m 48.24189,86.753506 c 4.949995,-7.799992 7.500007,-9.45 14.7,-9.45 l 6.9,0 -3.9,33.300004 c -0.599999,4.19999 -2.550005,7.5 -7.65,12.15 -4.649995,4.19999 -6,6.6 -6,9.9 0,4.49999 3.600005,8.25 8.25,8.25 4.649995,0 8.250002,-3.45001 10.2,-9.9 1.349999,-3.9 3.450001,-19.20002 4.8,-34.350004 l 1.8,-19.35 16.35,0 c -1.799998,11.849989 -3.15,28.050014 -3.15,36.600004 0,16.79998 5.700009,27 14.85,27 5.84999,0 11.1,-4.05001 14.7,-11.1 2.1,-4.2 2.7,-7.05001 3.15,-14.55 l -3.6,0 c -0.75,7.19999 -3.6,10.95 -8.55,10.95 -3,0 -6.15,-2.10001 -7.8,-5.25 -1.35,-2.7 -1.8,-5.10001 -1.8,-10.05 0,-11.399992 0.75,-25.350012 1.8,-33.600004 l 18.9,0 0,-13.35 -52.5,0 c -8.099992,0 -10.950004,1.050005 -15.3,5.25 -4.199996,4.199996 -6.600003,8.550009 -9.15,17.55 l 3,0" style="" id="path3808"/>
  </g>
</svg>